<?xml version="1.0" encoding="UTF-8"?>
<svg version="1.1" xmlns="http://www.w3.org/2000/svg" width="1024" height="1024">
<path d="M0 0 C337.92 0 675.84 0 1024 0 C1024 337.92 1024 675.84 1024 1024 C686.08 1024 348.16 1024 0 1024 C0 686.08 0 348.16 0 0 Z " fill="none" transform="translate(0,0)"/>
<path d="M0 0 C1.33417969 0.00966797 1.33417969 0.00966797 2.6953125 0.01953125 C4.07589844 0.04466797 4.07589844 0.04466797 5.484375 0.0703125 C6.42023438 0.07933594 7.35609375 0.08835938 8.3203125 0.09765625 C10.62526157 0.12117614 12.9296866 0.15404397 15.234375 0.1953125 C14.72245181 4.79693321 13.89656312 8.47818339 11.859375 12.6328125 C10.36280261 15.7709244 8.93928604 18.84923586 7.796875 22.1328125 C6.62268222 25.36995172 5.17502771 28.37834896 3.609375 31.4453125 C1.04589965 36.49137684 -1.3349999 41.59100932 -3.640625 46.7578125 C-7.65941386 55.75815069 -11.73501346 64.73153885 -15.83355713 73.69577026 C-16.52700805 75.21250147 -17.22017375 76.72936313 -17.9130249 78.24636841 C-21.97063755 87.13023971 -26.06040329 95.99726571 -30.21826172 104.8347168 C-31.79702448 108.26350654 -33.28224489 111.72436007 -34.765625 115.1953125 C-35.69469541 117.24082887 -36.63220033 119.28253539 -37.578125 121.3203125 C-38.09632813 122.43921875 -38.61453125 123.558125 -39.1484375 124.7109375 C-40.2265625 127.03385417 -41.3046875 129.35677083 -42.3828125 131.6796875 C-44.91916498 137.15618986 -47.42194951 142.63367505 -49.765625 148.1953125 C-50.40815705 149.63429113 -51.05352852 151.07200912 -51.703125 152.5078125 C-53.83623156 157.35578195 -55.79855291 162.27763228 -57.765625 167.1953125 C-26.085625 167.1953125 5.594375 167.1953125 38.234375 167.1953125 C38.234375 169.1953125 38.234375 169.1953125 36.296875 171.1953125 C35.61044922 171.85660156 35.61044922 171.85660156 34.91015625 172.53125 C29.50900441 177.89463155 24.57803685 183.71771138 19.796875 189.6328125 C16.72100912 193.43618753 13.54684334 197.09613902 10.234375 200.6953125 C6.19558414 205.08827425 2.39005897 209.6133216 -1.359375 214.25390625 C-4.07148045 217.569191 -6.84664778 220.82404072 -9.640625 224.0703125 C-13.53534372 228.59565757 -17.41500742 233.13236548 -21.265625 237.6953125 C-28.22431683 245.93493872 -35.20195934 254.16221619 -42.328125 262.2578125 C-45.72648654 266.1240644 -49.04444856 270.05733283 -52.36303711 273.99194336 C-56.35363666 278.71981109 -60.38596184 283.41084723 -64.42236328 288.09960938 C-67.45002334 291.62778225 -70.41020393 295.20021791 -73.328125 298.8203125 C-76.94613563 303.28230752 -80.77418526 307.51407332 -84.68212891 311.71972656 C-88.4285889 315.77327344 -91.92554204 319.98418983 -95.38671875 324.28125 C-98.62652538 328.24988012 -101.97539308 332.12028372 -105.32177734 335.99902344 C-108.38546683 339.55918473 -111.38141498 343.16196411 -114.328125 346.8203125 C-117.94678564 351.28310917 -121.77544637 355.51572431 -125.68432617 359.72192383 C-129.40954666 363.75211795 -132.87976378 367.94190421 -136.3203125 372.21484375 C-139.77699146 376.42801634 -143.36719029 380.52044677 -146.95068359 384.62573242 C-150.99917965 389.27667615 -154.9205977 394.00682124 -158.765625 398.828125 C-159.425625 399.60929687 -160.085625 400.39046875 -160.765625 401.1953125 C-161.49136719 402.11441406 -162.21710938 403.03351563 -162.96484375 403.98046875 C-166.86087803 407.0614331 -169.76924073 406.76982212 -174.578125 406.5078125 C-175.36638672 406.48525391 -176.15464844 406.46269531 -176.96679688 406.43945312 C-178.90056429 406.38085411 -180.83334667 406.29118077 -182.765625 406.1953125 C-182.48229239 398.07985706 -178.98827831 391.52895726 -175.515625 384.3203125 C-174.93518734 383.09292532 -174.35575315 381.86506306 -173.77734375 380.63671875 C-171.24780152 375.28420775 -168.66137464 369.96400025 -165.984375 364.68359375 C-164.26465683 361.26786804 -162.79165454 357.86816592 -161.515625 354.2578125 C-157.32887644 343.1018994 -151.94006641 332.43613231 -146.53710938 321.82714844 C-143.90889842 316.66369383 -141.44183024 311.58571397 -139.453125 306.1328125 C-136.77997092 298.85388619 -133.36830177 291.96052012 -129.98950195 284.98706055 C-127.10106487 279.01574904 -124.30123908 273.02147887 -121.640625 266.9453125 C-118.4768175 259.72007051 -115.14786506 252.58404612 -111.73388672 245.47363281 C-111.19658936 244.35166504 -111.19658936 244.35166504 -110.6484375 243.20703125 C-110.33277832 242.55178467 -110.01711914 241.89653809 -109.69189453 241.22143555 C-108.63705314 238.91407426 -107.70786053 236.55090132 -106.765625 234.1953125 C-138.445625 233.8653125 -170.125625 233.5353125 -202.765625 233.1953125 C-198.19287606 224.04981463 -190.26700908 216.43295554 -183.56738281 208.74707031 C-179.64426083 204.23765572 -175.83595885 199.6491376 -172.07421875 195.00390625 C-169.35218409 191.6923277 -166.56422769 188.44218191 -163.765625 185.1953125 C-160.21105008 181.0706695 -156.69770202 176.92323346 -153.265625 172.6953125 C-149.33415735 167.85220017 -145.28683102 163.11907069 -141.21362305 158.39550781 C-138.11122975 154.78966247 -135.0709672 151.14327458 -132.078125 147.4453125 C-128.52817179 143.07023503 -124.80998679 138.88982058 -121.015625 134.7265625 C-118.68700447 132.1068644 -116.46999553 129.4201594 -114.265625 126.6953125 C-111.3574912 123.100536 -108.38021168 119.61270622 -105.265625 116.1953125 C-101.3985851 111.94692091 -97.74987893 107.55953923 -94.1328125 103.09765625 C-87.62710286 95.12118387 -80.89769981 87.33382289 -74.140625 79.5703125 C-69.68930138 74.45521207 -65.34196074 69.2739803 -61.07421875 64.00390625 C-58.35218409 60.6923277 -55.56422769 57.44218191 -52.765625 54.1953125 C-49.21105008 50.0706695 -45.69770202 45.92323346 -42.265625 41.6953125 C-37.40243665 35.71052395 -32.37799089 29.87036899 -27.34472656 24.02880859 C-24.66832998 20.92124236 -21.99816167 17.80834293 -19.328125 14.6953125 C-18.6024231 13.85069458 -18.6024231 13.85069458 -17.86206055 12.98901367 C-17.39840088 12.44865479 -16.93474121 11.9082959 -16.45703125 11.3515625 C-16.00730957 10.82949219 -15.55758789 10.30742187 -15.09423828 9.76953125 C-14.19459437 8.70358051 -13.31307328 7.62211389 -12.44873047 6.52734375 C-8.68958001 1.79221866 -6.0732474 -0.07786215 0 0 Z " fill="#0098EA" transform="translate(626.765625,224.8046875)"/>
<path d="M0 0 C3.64337081 1.35834413 6.862275 3.00220288 10.18359375 5.01953125 C11.18318115 5.6235376 12.18276855 6.22754395 13.21264648 6.84985352 C14.80894897 7.82136353 14.80894897 7.82136353 16.4375 8.8125 C18.6871072 10.17252494 20.93711529 11.53188696 23.1875 12.890625 C23.75613266 13.23444717 24.32476532 13.57826935 24.91062927 13.93251038 C31.43379936 17.87384695 37.99908709 21.74305389 44.56616211 25.6105957 C61.77464134 35.75056349 61.77464134 35.75056349 67.125 39.375 C67.87007812 39.87773438 68.61515625 40.38046875 69.3828125 40.8984375 C69.91648437 41.26195312 70.45015625 41.62546875 71 42 C69.64273361 46.65549406 67.68723469 50.57767738 65.0625 54.625 C64.66772461 55.23400146 64.27294922 55.84300293 63.86621094 56.47045898 C59.55534553 62.92919712 54.43078464 68.47387648 49 74 C47.93222733 75.10670876 46.8645207 76.21348125 45.796875 77.3203125 C39.2417938 84.0538495 32.47342817 90.2803363 25 96 C24.44086914 96.43022461 23.88173828 96.86044922 23.30566406 97.30371094 C1.77331926 113.78338167 -21.75807778 125.43300687 -47.38330078 134.10644531 C-49.83497452 134.94364683 -52.27484687 135.80917985 -54.71484375 136.6796875 C-88.72327472 148.52003503 -134.29187705 148.16587754 -169 139 C-167.30988226 134.93377555 -164.47829582 131.84754453 -161.625 128.5625 C-160.65822916 127.43933976 -159.69207366 126.31564954 -158.7265625 125.19140625 C-158.29939941 124.69842041 -157.87223633 124.20543457 -157.43212891 123.69750977 C-155.84754843 121.90764788 -155.84754843 121.90764788 -154.33349609 119.2590332 C-152 117 -152 117 -148.33984375 116.93603516 C-146.86874607 117.1555039 -145.4012325 117.3998995 -143.9375 117.6640625 C-142.3109218 117.90071697 -140.68325509 118.12998658 -139.0546875 118.35253906 C-138.21776367 118.46843384 -137.38083984 118.58432861 -136.51855469 118.70373535 C-130.17604239 119.44982285 -123.77375618 119.37190662 -117.39550781 119.37060547 C-114.99993765 119.37500011 -112.60618804 119.41159446 -110.2109375 119.44921875 C-95.20382419 119.5575025 -78.35139153 117.3973926 -65 110 C-62.00573189 106.8925465 -60.50890123 104.42469851 -59.75 100.1875 C-59.5 98.79166667 -59.25 97.39583333 -59 96 C-66.90985521 92.74211664 -73.95225334 92.60667045 -82.44140625 92.70703125 C-83.81859369 92.71263814 -85.19578718 92.71690306 -86.57298279 92.71989441 C-90.16843677 92.7312574 -93.76351749 92.76064875 -97.35882568 92.79400635 C-101.03929599 92.82489355 -104.7198276 92.83843927 -108.40039062 92.85351562 C-115.60042915 92.8855285 -122.80016194 92.9366187 -130 93 C-130 92.34 -130 91.68 -130 91 C-129.34 91 -128.68 91 -128 91 C-127.77699219 90.45730469 -127.55398438 89.91460938 -127.32421875 89.35546875 C-125.23808408 85.64473363 -122.21585015 82.7728185 -119.28491211 79.72290039 C-116.3483775 76.61931881 -114.18919889 73.66533425 -112.0625 69.9375 C-109.03160394 65.88903692 -106.01396128 65.3086895 -101.24267578 64.57641602 C-98.5790885 64.24427498 -95.91380848 63.93770812 -93.24609375 63.640625 C-72.45926692 61.30290822 -51.22126361 50.91732687 -35 38 C-34.43522949 37.55043945 -33.87045898 37.10087891 -33.28857422 36.63769531 C-20.04895566 25.98396793 -9.5573798 14.01472613 0 0 Z " fill="#0098EA" transform="translate(655,489)"/>
<path d="M0 0 C0.99 0.495 0.99 0.495 2 1 C1.79503906 1.7734375 1.59007812 2.546875 1.37890625 3.34375 C1.10949219 4.3853125 0.84007812 5.426875 0.5625 6.5 C0.29566406 7.5209375 0.02882813 8.541875 -0.24609375 9.59375 C-2.05568721 17.76973701 -2.18630254 25.7247004 -2.18530273 34.07910156 C-2.18747297 36.09982914 -2.20563516 38.11999468 -2.22460938 40.140625 C-2.24231652 52.20509135 -0.65709342 63.78762295 1.875 75.5625 C2.13434326 76.76918335 2.13434326 76.76918335 2.39892578 78.00024414 C4.92973266 89.48983204 8.54752862 99.56852115 14 110 C17 116.27881041 17 116.27881041 17 120 C11.71408238 118.99938866 6.47116101 117.89680602 1.25 116.59765625 C-14.09681232 112.80568713 -29.26085386 110.43649392 -45 109 C-44.17625791 118.54338467 -41.67999239 125.00191274 -35 132 C-33.02369593 133.36821051 -31.02790984 134.70951192 -29 136 C-27.39364412 139.21271176 -27.53675156 142.51526547 -28 146 C-29.61852195 148.79562882 -31.02517809 149.67996413 -34.0703125 150.6796875 C-41.66097041 152.46141749 -50.03946184 153.34375402 -57.5 150.8125 C-66.45505353 144.32008619 -69.87996581 132.18160872 -73.3125 122.125 C-73.67150391 121.10664063 -74.03050781 120.08828125 -74.40039062 119.0390625 C-77 111.5125744 -77 111.5125744 -77 107 C-80.96 106.67 -84.92 106.34 -89 106 C-92.23465164 99.42416627 -93.61575195 92.57798765 -95.125 85.4375 C-95.38925781 84.25091797 -95.65351563 83.06433594 -95.92578125 81.84179688 C-98.20995955 71.16877084 -99.18371298 60.53416831 -99.0625 49.625 C-99.05347656 48.54476562 -99.04445312 47.46453125 -99.03515625 46.3515625 C-99.02355469 45.57554687 -99.01195312 44.79953125 -99 44 C-92.25520749 41.44725507 -85.47519375 38.99858661 -78.6875 36.5625 C-75.48583411 35.41253763 -72.28435998 34.26205626 -69.08349609 33.10986328 C-67.09219906 32.39312248 -65.10037346 31.67784773 -63.10791016 30.96435547 C-57.01682032 28.77113455 -50.99018809 26.45531758 -45 24 C-44.12069824 23.6400293 -43.24139648 23.28005859 -42.33544922 22.90917969 C-27.51337541 16.77790747 -12.40128861 10.40567895 0 0 Z " fill="#0098EA" transform="translate(349,368)"/>
<path d="M0 0 C3.76199588 0.56423738 6.29060475 1.56440689 9.44921875 3.66796875 C10.70774658 4.50231445 10.70774658 4.50231445 11.99169922 5.35351562 C12.88131348 5.95873047 13.77092773 6.56394531 14.6875 7.1875 C15.61578613 7.81462891 16.54407227 8.44175781 17.50048828 9.08789062 C38.35763541 23.33179598 64.69195296 41.62342322 76 65 C75.86767578 67.47436523 75.86767578 67.47436523 75 70 C73.05175781 71.67480469 73.05175781 71.67480469 70.453125 73.171875 C69.47714355 73.74534668 68.50116211 74.31881836 67.49560547 74.90966797 C66.42455566 75.51697754 65.35350586 76.12428711 64.25 76.75 C62.55574788 77.73771714 60.86150281 78.72544648 59.16757202 79.7137146 C57.36338755 80.76256352 55.55486465 81.80355616 53.74511719 82.84277344 C49.31921297 85.38680625 44.91841666 87.97299035 40.51766968 90.56021118 C37.40041917 92.39269489 34.28177897 94.22260753 31.15771484 96.04345703 C26.05510027 99.01890324 20.95971281 101.99940276 15.9375 105.109375 C14.87813232 105.76317139 14.87813232 105.76317139 13.79736328 106.43017578 C12.0441233 107.51988323 10.2989522 108.62254555 8.5546875 109.7265625 C6 111 6 111 3 110 C1.703125 108.4609375 1.703125 108.4609375 0.25 106.375 C-3.30368489 101.6544335 -7.27524648 97.49016928 -11.4375 93.3125 C-12.05786133 92.68327637 -12.67822266 92.05405273 -13.31738281 91.40576172 C-17.04907329 87.69652778 -20.90772825 84.41673697 -25.17407227 81.33618164 C-27.89123583 79.34780937 -30.43523194 77.18005285 -33 75 C-31.67134736 70.78965265 -30.08726039 66.84469024 -28.20703125 62.8515625 C-27.66288574 61.68987549 -27.11874023 60.52818848 -26.55810547 59.33129883 C-26.27304138 58.7262149 -25.98797729 58.12113098 -25.6942749 57.49771118 C-24.20352015 54.33165022 -22.72475352 51.16000492 -21.24609375 47.98828125 C-20.95732361 47.36920395 -20.66855347 46.75012665 -20.37103271 46.11228943 C-17.47224117 39.886783 -14.7150408 33.60990799 -11.99853516 27.30322266 C-9.71027666 22.02512226 -7.38163847 16.76458408 -5.0625 11.5 C-4.09501641 9.30209904 -3.12756557 7.10418365 -2.16015625 4.90625 C-1.44012796 3.27082286 -0.72008548 1.63540196 0 0 Z " fill="#0098EA" transform="translate(647,256)"/>
<path d="M0 0 C14.49560934 9.99211906 20.14838312 28.95462488 25.01171875 45.01171875 C25.45837891 46.48511719 25.45837891 46.48511719 25.9140625 47.98828125 C26.73030199 50.97968869 27.38261017 53.97499462 28.01171875 57.01171875 C28.17945801 57.75373535 28.34719727 58.49575195 28.52001953 59.26025391 C31.55168813 72.95448397 32.39449974 86.35042651 32.38671875 100.32421875 C32.38844086 101.12076874 32.39016296 101.91731873 32.39193726 102.73800659 C32.38569084 128.23947302 32.38569084 128.23947302 24.01171875 139.01171875 C20.80202693 141.879954 18.90014861 142.84409047 14.69921875 143.63671875 C7.1909303 142.36412749 2.41715949 137.94423013 -2.11328125 132.01171875 C-19.04750827 107.08077341 -24.39150351 77.23113463 -24.30395508 47.56518555 C-24.30076743 45.31445972 -24.32448653 43.06502084 -24.34960938 40.81445312 C-24.38809851 31.82776176 -23.51383777 23.70527742 -20.98828125 15.01171875 C-20.77429688 14.24722412 -20.5603125 13.48272949 -20.33984375 12.69506836 C-18.69930561 7.61000328 -15.94252387 3.56435861 -11.98828125 0.01171875 C-7.7618263 -1.39709957 -4.14798847 -2.0617703 0 0 Z " fill="#0098EA" transform="translate(378.98828125,354.98828125)"/>
<path d="M0 0 C0.70890381 -0.0100708 1.41780762 -0.0201416 2.14819336 -0.03051758 C12.03318277 0.13259342 20.57313014 5.75217287 27.41015625 12.6015625 C33.11617624 19.04573292 33.11617624 19.04573292 33.5625 23.6875 C33.1791548 28.28764238 32.28114801 29.96276935 29.25 33.4375 C25.48292751 36.56123943 22.16829918 39.0882582 17.2890625 39.9765625 C13.03209893 39.22147127 11.48792016 36.69751745 9 33.4375 C5.41763336 29.17910732 5.41763336 29.17910732 0.66796875 26.39453125 C-6.57284691 25.97262546 -11.41078641 30.03470234 -16.75 34.4375 C-17.97589844 35.38109375 -17.97589844 35.38109375 -19.2265625 36.34375 C-37.64783178 50.81362919 -53.0587126 67.07352898 -64.05078125 87.90234375 C-68.54269083 95.81533617 -76.16348883 99.85840973 -83.75 104.4375 C-84.65564697 104.99244141 -84.65564697 104.99244141 -85.57958984 105.55859375 C-95.19741587 111.4375 -95.19741587 111.4375 -97.75 111.4375 C-94.86958715 85.55677558 -81.55035148 63.74847605 -64.109375 44.98046875 C-61.98421999 42.68994572 -59.91898335 40.36280981 -57.875 38 C-53.09212869 32.51939217 -53.09212869 32.51939217 -50.75 30.4375 C-50.09 30.4375 -49.43 30.4375 -48.75 30.4375 C-48.255 28.9525 -48.255 28.9525 -47.75 27.4375 C-46.32421875 26 -46.32421875 26 -44.4375 24.4375 C-41.30788487 21.79671165 -38.28316081 19.07931095 -35.30371094 16.26977539 C-30.46045454 11.72712966 -25.75613835 7.38259487 -19.75 4.4375 C-18.97914063 4.04820312 -18.20828125 3.65890625 -17.4140625 3.2578125 C-11.61082458 0.73087707 -6.25374695 0.05753528 0 0 Z " fill="#0098EA" transform="translate(416.75,257.5625)"/>
<path d="M0 0 C4.01547856 0.21327633 7.99949202 0.59732305 12 1 C13.19882812 1.05671875 14.39765625 1.1134375 15.6328125 1.171875 C19.5931487 1.5995571 22.44174076 2.18598548 26 4 C29.16143453 8.27220882 31.04093114 12.80103689 33.02832031 17.70458984 C42.79417799 40.77458832 60.41034625 63.39662191 82.13671875 76.265625 C85.38334156 77.54521638 88.57342962 77.48648839 92 77 C94.34261608 75.62073227 94.34261608 75.62073227 96 74 C96.66 74 97.32 74 98 74 C98.37125 73.13375 98.37125 73.13375 98.75 72.25 C100.23824784 69.57115389 101.57263634 67.88794951 104 66 C109.44010711 64.7047364 113.23214808 67.56056934 117.73046875 70.296875 C120.06455594 72.04844473 121.5245338 73.48694789 123 76 C123.37460816 78.73713695 123.13898721 81.22025584 123 84 C122.34 84 121.68 84 121 84 C120.814375 84.86625 120.62875 85.7325 120.4375 86.625 C116.84794456 95.0526519 107.93965085 98.43644326 100 102 C91.91572623 104.69475792 81.03053329 104.03704433 73.359375 100.39453125 C68.64046494 97.60537415 64.3248333 94.35735207 60 91 C58.92685547 90.23429688 58.92685547 90.23429688 57.83203125 89.453125 C30.70319558 69.7045542 8.83962848 36.18818304 0 4 C0 2.68 0 1.36 0 0 Z " fill="#0098EA" transform="translate(327,495)"/>
<path d="M0 0 C1.56966 0.00503356 3.1393216 0.00959313 4.70898438 0.01367188 C8.49353017 0.02451088 12.27799656 0.04166905 16.0625 0.0625 C14.79884915 2.77583816 13.45106385 4.9780757 11.48828125 7.234375 C10.98490234 7.81703125 10.48152344 8.3996875 9.96289062 9 C9.43888672 9.598125 8.91488281 10.19625 8.375 10.8125 C7.61799805 11.68648438 7.61799805 11.68648438 6.84570312 12.578125 C5.80207147 13.78140195 4.74768862 14.97542534 3.68359375 16.16064453 C2.01315228 18.05668968 2.01315228 18.05668968 0.55078125 20.24169922 C-1.88181239 23.55744956 -3.6639202 25.6838345 -7.68334961 26.87890625 C-10.98346083 27.31473573 -14.23746407 27.53337937 -17.5625 27.6875 C-30.00616564 28.67031395 -41.16237661 30.9777881 -52.9375 35.0625 C-53.72979004 35.33610352 -54.52208008 35.60970703 -55.33837891 35.89160156 C-64.87905385 39.25473373 -73.74681385 43.30733078 -82.5078125 48.36328125 C-93.02750994 53.57520424 -107.53850903 54.0973916 -118.87890625 51.22265625 C-126.4549363 48.56612623 -133.98329688 44.13791782 -138.12890625 37.015625 C-139.56534731 33.54596061 -139.67570153 31.81502445 -138.9375 28.0625 C-134.69091787 23.31767267 -130.13805135 18.55489252 -123.6875 17.5625 C-118.97289589 18.19111388 -118.05345505 19.62587706 -115.26171875 23.23828125 C-114.82472656 23.84027344 -114.38773437 24.44226563 -113.9375 25.0625 C-112.20739612 27.54481727 -112.20739612 27.54481727 -109.9375 29.0625 C-103.66538559 29.60469986 -99.82634185 28.55736449 -94.375 25.5625 C-93.68809082 25.2030127 -93.00118164 24.84352539 -92.29345703 24.47314453 C-90.16476292 23.35398446 -88.0498469 22.21217724 -85.9375 21.0625 C-72.58977949 13.82765819 -59.77859354 7.57385604 -45 3.75 C-43.55379272 3.36787354 -43.55379272 3.36787354 -42.07836914 2.97802734 C-28.27467365 -0.41024695 -14.11745991 -0.08013552 0 0 Z " fill="#0098EA" transform="translate(536.9375,277.9375)"/>
<path d="M0 0 C0.91616089 -0.00295074 1.83232178 -0.00590149 2.77624512 -0.00894165 C43.74654257 -0.03885024 43.74654257 -0.03885024 56.5625 10.3125 C55.11734843 14.84614694 52.75173754 17.57046961 49.5 21 C46.14291094 24.38170684 46.14291094 24.38170684 43.5625 28.3125 C38.06967181 28.45605606 33.31509002 27.98953529 27.91015625 26.83984375 C17.62676411 24.85640994 7.44201722 24.80536117 -3 24.875 C-3.96794495 24.87804138 -4.93588989 24.88108276 -5.9331665 24.88421631 C-20.7899847 24.95319231 -34.96277385 25.70443822 -49.4375 29.3125 C-50.92540039 29.67384033 -50.92540039 29.67384033 -52.44335938 30.04248047 C-63.93247908 32.68323588 -63.93247908 32.68323588 -74.8046875 37.05859375 C-77.4375 38.3125 -77.4375 38.3125 -79.546875 38.234375 C-82.01879302 37.0290596 -83.7010891 35.46316654 -85.6875 33.5625 C-89.699475 29.86323284 -93.72693811 27.05319056 -98.4375 24.3125 C-95.97384276 18.30169228 -90.3229002 15.96542761 -84.578125 13.52148438 C-74.13300899 9.3783921 -63.41884779 6.59942234 -52.4375 4.3125 C-51.76332031 4.16683594 -51.08914063 4.02117187 -50.39453125 3.87109375 C-48.39077579 3.44088706 -46.38408672 3.02951578 -44.375 2.625 C-43.22902344 2.39425781 -42.08304687 2.16351563 -40.90234375 1.92578125 C-27.4773055 -0.19171715 -13.5573731 0.03870476 0 0 Z " fill="#0098EA" transform="translate(532.4375,224.6875)"/>
<path d="M0 0 C12 0 12 0 14.68359375 1.7734375 C15.26238281 2.63195312 15.84117187 3.49046875 16.4375 4.375 C17.14003906 5.365 17.84257812 6.355 18.56640625 7.375 C19.13125732 8.22384766 19.13125732 8.22384766 19.70751953 9.08984375 C21.1966019 11.29055785 22.76177532 13.42472912 24.33984375 15.5625 C26.63668635 18.68346836 28.92330011 21.81056155 31.1796875 24.9609375 C31.65132324 25.61884277 32.12295898 26.27674805 32.60888672 26.95458984 C34.16512549 29.24279069 35.57625514 31.62709191 37 34 C37.33 22.78 37.66 11.56 38 0 C42.29 0 46.58 0 51 0 C51 18.48 51 36.96 51 56 C39 56 39 56 35.75 53.1875 C34.80289462 51.81213828 33.88883533 50.41371858 33 49 C31.77724298 47.32862519 30.54747336 45.66236857 29.3125 44 C28.64863281 43.07574219 27.98476563 42.15148437 27.30078125 41.19921875 C24.55814799 37.38560816 21.78067016 33.5984102 19 29.8125 C17.35 27.564375 15.7 25.31625 14 23 C13.67 33.89 13.34 44.78 13 56 C8.71 56 4.42 56 0 56 C0 37.52 0 19.04 0 0 Z " fill="#0098EA" transform="translate(402,695)"/>
<path d="M0 0 C13 0 13 0 16.47265625 2.90234375 C17.38053334 4.21770637 18.24256359 5.56559479 19.0625 6.9375 C19.53727783 7.64664551 20.01205566 8.35579102 20.5012207 9.08642578 C21.50706465 10.59082706 22.49563813 12.10690037 23.46777344 13.63330078 C25.5614807 16.86727117 27.80974979 19.98033317 30.05834961 23.10766602 C31.61850202 25.2789736 33.16458399 27.45903216 34.69921875 29.6484375 C35.12033936 30.24833496 35.54145996 30.84823242 35.9753418 31.46630859 C37 33 37 33 38 35 C38.33 23.78 38.66 12.56 39 1 C42.96 1 46.92 1 51 1 C51 19.15 51 37.3 51 56 C39 56 39 56 36.31176758 54.27856445 C35.76157959 53.481521 35.2113916 52.68447754 34.64453125 51.86328125 C34.00193359 50.97447266 33.35933594 50.08566406 32.69726562 49.16992188 C32.07529297 48.22697266 31.45332031 47.28402344 30.8125 46.3125 C29.86213867 44.97348633 29.86213867 44.97348633 28.89257812 43.60742188 C26.88844217 40.76603841 24.94509584 37.88212128 23 35 C20.03 30.71 17.06 26.42 14 22 C13.67 33.22 13.34 44.44 13 56 C8.71 56 4.42 56 0 56 C0 37.52 0 19.04 0 0 Z " fill="#0098EA" transform="translate(665,695)"/>
<path d="M0 0 C0.99 0 1.98 0 3 0 C13.90019511 11.9025119 19.40856568 36.28223807 19 52 C19.66 52 20.32 52 21 52 C23.16888608 65.66608805 24.08184675 79.17321653 24.25 93 C24.27143066 93.97960693 24.29286133 94.95921387 24.31494141 95.96850586 C24.3418958 101.78316782 23.72353011 105.83962716 21 111 C18.2087285 111 16.51782829 110.50698371 14.5078125 108.5390625 C6.79459156 98.74766805 -0.07164563 83.62362222 1 71 C1.66 70.29875 2.32 69.5975 3 68.875 C6.15903711 64.33388416 5.61441381 59.37254867 5 54 C3.91939362 50.27411256 3.91939362 50.27411256 1.125 47.875 C0.073125 47.441875 0.073125 47.441875 -1 47 C-3.10180664 45.84741211 -3.10180664 45.84741211 -5 44 C-5.50170898 41.09594727 -5.50170898 41.09594727 -5.49609375 37.56640625 C-5.49673828 36.27669922 -5.49738281 34.98699219 -5.49804688 33.65820312 C-5.48765381 32.984104 -5.47726074 32.31000488 -5.46655273 31.61547852 C-5.43804871 29.60127432 -5.44813849 27.5866423 -5.45898438 25.57226562 C-5.32863908 5.32863908 -5.32863908 5.32863908 0 0 Z " fill="#0098EA" transform="translate(374,371)"/>
<path d="M0 0 C3.96 0 7.92 0 12 0 C16.26936941 8.42335046 20.01012342 16.88280735 23.35546875 25.70703125 C23.66196854 26.51363693 23.96846832 27.32024261 24.28425598 28.15129089 C24.92623627 29.84265909 25.56739395 31.53433973 26.20776367 33.22631836 C27.19164739 35.82344774 28.1806952 38.41857364 29.16992188 41.01367188 C29.79458707 42.66133848 30.41894701 44.30912084 31.04296875 45.95703125 C31.3397905 46.73407913 31.63661224 47.51112701 31.94242859 48.3117218 C34 53.77122935 34 53.77122935 34 56 C29.38 56 24.76 56 20 56 C17 49.375 17 49.375 17 46 C9.74 46 2.48 46 -5 46 C-5.33 47.65 -5.66 49.3 -6 51 C-6.99 53.475 -6.99 53.475 -8 56 C-12.62 56 -17.24 56 -22 56 C-21.28372385 53.85117156 -20.56694266 51.70251018 -19.84765625 49.5546875 C-19.32507003 47.97970416 -18.81033119 46.40206104 -18.30859375 44.8203125 C-16.63252876 39.59098975 -14.60395714 34.5722662 -12.45703125 29.51953125 C-10.39971053 24.549971 -8.48464945 19.52686963 -6.58691406 14.49438477 C-4.67295539 9.49219487 -2.46001886 4.75854852 0 0 Z " fill="#0098EA" transform="translate(336,695)"/>
<path d="M0 0 C4.29 0 8.58 0 13 0 C13 7.59 13 15.18 13 23 C20.92 23 28.84 23 37 23 C37 15.74 37 8.48 37 1 C40.96 1 44.92 1 49 1 C49 19.15 49 37.3 49 56 C44.71 56 40.42 56 36 56 C36 48.74 36 41.48 36 34 C28.41 34 20.82 34 13 34 C13 41.26 13 48.52 13 56 C8.71 56 4.42 56 0 56 C0 37.52 0 19.04 0 0 Z " fill="#0098EA" transform="translate(258,695)"/>
<path d="M0 0 C4.29 0 8.58 0 13 0 C13.01401855 1.63412842 13.01401855 1.63412842 13.02832031 3.30126953 C13.06832981 7.36076054 13.13411829 11.41950241 13.20751953 15.47851562 C13.23566584 17.23199812 13.25691185 18.98560599 13.27099609 20.73925781 C13.29251427 23.26692599 13.33920702 25.79309684 13.390625 28.3203125 C13.39185364 29.09867462 13.39308228 29.87703674 13.39434814 30.6789856 C13.53253597 35.86709865 14.58405235 38.87512732 18 43 C21.69153519 44.8457676 25.97021939 44.48175083 30 44 C33.09799981 41.80873184 33.80352112 40.58943664 35 37 C35.1539263 34.19839498 35.25738045 31.41701575 35.31640625 28.61328125 C35.33718735 27.79627243 35.35796844 26.97926361 35.37937927 26.13749695 C35.44473079 23.52924966 35.50369273 20.92090225 35.5625 18.3125 C35.60569892 16.54360946 35.64931365 14.77472903 35.69335938 13.00585938 C35.80039743 8.67067537 35.90170544 4.33539071 36 0 C40.29 0 44.58 0 49 0 C49.07433795 5.87155408 49.12869117 11.74283219 49.16479492 17.61474609 C49.17985098 19.61088841 49.20030027 21.60699781 49.22631836 23.60302734 C49.26284161 26.47762185 49.27975837 29.35177772 49.29296875 32.2265625 C49.30845261 33.11429352 49.32393646 34.00202454 49.33988953 34.91665649 C49.34165929 41.48058808 48.06096402 45.60482559 43.6875 50.6875 C36.88239419 56.54305616 29.82704863 57.38711259 21.13671875 57.26953125 C15.34182607 56.77158904 10.34677189 55.28834604 6.1171875 51.1640625 C0.81688682 44.48107469 -0.29983945 38.20754269 -0.1953125 29.8828125 C-0.1924826 29.02565643 -0.18965271 28.16850037 -0.18673706 27.28536987 C-0.17559999 24.56510068 -0.1505076 21.84516859 -0.125 19.125 C-0.11496182 17.27344228 -0.10583744 15.42187936 -0.09765625 13.5703125 C-0.07568188 9.0467464 -0.041197 4.52343023 0 0 Z " fill="#0098EA" transform="translate(555,695)"/>
<path d="M0 0 C13.2 0 26.4 0 40 0 C40 3.96 40 7.92 40 12 C31.09 12 22.18 12 13 12 C13 15.63 13 19.26 13 23 C20.26 23 27.52 23 35 23 C35 26.3 35 29.6 35 33 C24.605 33.495 24.605 33.495 14 34 C13.67 37.63 13.34 41.26 13 45 C21.91 45 30.82 45 40 45 C40 48.63 40 52.26 40 56 C26.8 56 13.6 56 0 56 C0 37.52 0 19.04 0 0 Z " fill="#0098EA" transform="translate(786,695)"/>
<path d="M0 0 C12.87 0 25.74 0 39 0 C39 3.96 39 7.92 39 12 C30.75 12 22.5 12 14 12 C14 15.3 14 18.6 14 22 C20.93 22.33 27.86 22.66 35 23 C35 26.3 35 29.6 35 33 C27.74 33 20.48 33 13 33 C13 36.96 13 40.92 13 45 C21.91 45 30.82 45 40 45 C40 48.63 40 52.26 40 56 C26.8 56 13.6 56 0 56 C0 37.52 0 19.04 0 0 Z " fill="#0098EA" transform="translate(616,695)"/>
<path d="M0 0 C-0.48071562 6.06649576 -1.84385884 10.58425147 -4.5625 16 C-4.89185547 16.67933594 -5.22121094 17.35867188 -5.56054688 18.05859375 C-6.36337283 19.71078629 -7.18021784 21.35615484 -8 23 C-12.72837857 22.49164708 -15.65270212 21.23762487 -19.5625 18.5625 C-25.39146993 14.60210766 -29.79385155 12.24145806 -37 13 C-40.73193585 14.94060664 -43.0070058 16.92626829 -45.375 20.3125 C-48 23 -48 23 -51.8125 23.25 C-57.85395581 21.98897507 -62.64001799 18.03997301 -66 13 C-66.8547159 8.27657003 -66.53010283 4.88920475 -64.0625 0.75 C-47.25866573 -16.43573959 -17.97307398 -12.17138193 0 0 Z " fill="#0098EA" transform="translate(465,538)"/>
<path d="M0 0 C0.763125 0.598125 1.52625 1.19625 2.3125 1.8125 C0.81413895 4.92448065 -0.88683758 7.8659615 -2.6875 10.8125 C-8.4375 9.9375 -8.4375 9.9375 -10.6875 8.8125 C-19.1201104 7.86702547 -19.1201104 7.86702547 -27.09765625 10.046875 C-30.34810866 12.83494883 -33.42349865 15.88467616 -34.0234375 20.265625 C-34.11372841 26.73045448 -33.69224113 30.6484917 -29.6875 35.8125 C-25.46086473 39.73723275 -21.93952674 40.42199642 -16.3671875 40.21875 C-11.83048318 39.53096975 -7.80817369 37.77639555 -3.6875 35.8125 C-2.65159662 36.88143218 -1.63416058 37.96828488 -0.625 39.0625 C-0.05652344 39.66578125 0.51195312 40.2690625 1.09765625 40.890625 C2.3125 42.8125 2.3125 42.8125 2.29296875 44.87890625 C0.91336833 47.59963217 -0.70063268 48.21658736 -3.4375 49.5 C-4.29859375 49.91636719 -5.1596875 50.33273437 -6.046875 50.76171875 C-14.1163197 53.97278476 -23.46231426 53.95103265 -31.55859375 50.8515625 C-39.33820917 47.05453919 -44.76323856 41.57733785 -48 33.5625 C-49.87049161 23.35981848 -48.92930566 14.38706182 -43.1875 5.625 C-33.06145499 -7.06427946 -13.2259993 -8.76534387 0 0 Z " fill="#0098EA" transform="translate(774.6875,699.1875)"/>
<path d="M0 0 C-0.56545837 3.95820859 -1.80902348 6.6659053 -4 10 C-7.11079394 9.55560087 -9.83178491 9.06881526 -12.75 7.875 C-17.39509036 6.62439875 -21.37022027 6.63453501 -26 8 C-29.62391686 10.37244966 -33.03841587 13.07683173 -35 17 C-35.78893565 23.69468252 -35.47401513 28.89216838 -31.40625 34.40625 C-28.74121776 37.42661987 -26.76244889 38.78982722 -22.70703125 39.2734375 C-16.98565266 39.49848416 -13.070883 38.5871852 -8 36 C-7.01 35.67 -6.02 35.34 -5 35 C-3.82739389 36.28627711 -2.6620717 37.57919783 -1.5 38.875 C-0.8503125 39.59429688 -0.200625 40.31359375 0.46875 41.0546875 C2 43 2 43 2 45 C0.27559635 45.98753064 -1.45475026 46.96468806 -3.1875 47.9375 C-4.15042969 48.48277344 -5.11335938 49.02804687 -6.10546875 49.58984375 C-13.46929062 53.17734671 -22.95581568 53.1753669 -30.75 50.875 C-40.1254641 47.22332467 -45.08703289 41.10335965 -49.3125 32.25 C-51.57874525 21.53684063 -49.74167403 12.8959712 -43.9375 3.75 C-32.75866288 -8.47358825 -13.1624364 -9.21370548 0 0 Z " fill="#0098EA" transform="translate(248,700)"/>
<path d="M0 0 C12.87 0 25.74 0 39 0 C39 3.63 39 7.26 39 11 C30.42 11 21.84 11 13 11 C13 15.29 13 19.58 13 24 C19.93 24 26.86 24 34 24 C34 27.3 34 30.6 34 34 C27.07 34 20.14 34 13 34 C13 41.26 13 48.52 13 56 C8.71 56 4.42 56 0 56 C0 37.52 0 19.04 0 0 Z " fill="#0098EA" transform="translate(465,695)"/>
<path d="M0 0 C0.94272955 2.82818865 1.2607455 5.05611688 1.5 8.0078125 C1.5825 8.99523437 1.665 9.98265625 1.75 11 C1.87375 12.546875 1.87375 12.546875 2 14.125 C2.66354455 27.26817446 2.66354455 27.26817446 5.5625 40 C7.12636618 44.8434302 7.24525666 48.93136234 7 54 C-10.2985534 54.60110803 -10.2985534 54.60110803 -15 51 C-21.37573212 41.25764297 -23.13353931 32.1151363 -23.3125 20.75 C-23.33038574 19.96866699 -23.34827148 19.18733398 -23.36669922 18.38232422 C-23.35982136 13.80854808 -23.19207072 10.53903493 -20 7 C-17.46220695 5.43879127 -14.81942392 4.3055721 -12.0625 3.1875 C-10.98838867 2.72053711 -10.98838867 2.72053711 -9.89257812 2.24414062 C-6.21713294 0.6942541 -4.11029414 0 0 0 Z " fill="#0098EA" transform="translate(240,417)"/>
<path d="M0 0 C4.29 0 8.58 0 13 0 C13 14.85 13 29.7 13 45 C20.59 45 28.18 45 36 45 C36 48.63 36 52.26 36 56 C24.12 56 12.24 56 0 56 C0 37.52 0 19.04 0 0 Z " fill="#0098EA" transform="translate(513,695)"/>
<path d="M0 0 C3.98141832 0.61162113 7.80316914 1.44015529 11.6875 2.5 C17.4464961 3.97758974 23.07327179 4.66166315 29 5 C29.4375 7.5 29.4375 7.5 29 11 C27.53188149 13.03597568 25.86187371 14.77452089 24.13671875 16.59765625 C21.63793198 19.40707831 19.49436077 22.40260927 17.375 25.5 C16.79975586 26.33772949 16.79975586 26.33772949 16.21289062 27.19238281 C14.06851025 30.34599229 12.02939109 33.54595227 10.0625 36.8125 C9.381875 37.864375 8.70125 38.91625 8 40 C7.34 40 6.68 40 6 40 C5.78384033 39.49138428 5.56768066 38.98276855 5.3449707 38.45874023 C4.34281229 36.11451469 3.3277667 33.77607661 2.3125 31.4375 C1.97283203 30.63763672 1.63316406 29.83777344 1.28320312 29.01367188 C-0.43425896 25.08116523 -2.19574299 21.54403412 -4.7578125 18.08984375 C-7 15 -7 15 -7.1875 12.125 C-5.47373458 7.61509101 -2.82501807 3.88763955 0 0 Z " fill="#0098EA" transform="translate(401,335)"/>
<path d="M0 0 C4.29 0 8.58 0 13 0 C13 18.48 13 36.96 13 56 C8.71 56 4.42 56 0 56 C0 37.52 0 19.04 0 0 Z " fill="#0098EA" transform="translate(377,695)"/>
<path d="M0 0 C3.32236714 4.11340694 6.56569333 8.27933106 9.75 12.5 C10.25660156 13.15097656 10.76320313 13.80195313 11.28515625 14.47265625 C11.76339844 15.11074219 12.24164063 15.74882812 12.734375 16.40625 C13.16975586 16.97666016 13.60513672 17.54707031 14.05371094 18.13476562 C15.26362631 20.51963494 15.16410986 22.36292436 15 25 C11.66683783 25.48036217 8.33343987 25.95906904 5 26.4375 C4.06542969 26.57220703 3.13085938 26.70691406 2.16796875 26.84570312 C0.31743952 27.11098878 -1.53413955 27.36905905 -3.38671875 27.61962891 C-5.04192037 27.86054857 -6.69238681 28.13960814 -8.33203125 28.47021484 C-10.4375 28.86328125 -10.4375 28.86328125 -14 29 C-16.3125 27.234375 -16.3125 27.234375 -18 24.75 C-18.5775 23.94046875 -19.155 23.1309375 -19.75 22.296875 C-21 20 -21 20 -21 17 C-19.824375 16.608125 -18.64875 16.21625 -17.4375 15.8125 C-8.91523346 12.55089182 -4.63293314 7.78943704 0 0 Z " fill="#0098EA" transform="translate(418,492)"/>
<path d="M0 0 C2.72863567 2.72863567 3.47085394 5.91006895 4.625 9.5 C4.85445313 10.18964844 5.08390625 10.87929688 5.3203125 11.58984375 C7 16.71888951 7 16.71888951 7 19 C2.38 19 -2.24 19 -7 19 C-2.05882353 2.05882353 -2.05882353 2.05882353 0 0 Z " fill="#0098EA" transform="translate(342,712)"/>
<path d="M0 0 C0.66 0.33 1.32 0.66 2 1 C1.34 3.64 0.68 6.28 0 9 C-2 6 -2 6 -2 4 C-2.66 3.67 -3.32 3.34 -4 3 C-2.68 2.01 -1.36 1.02 0 0 Z " fill="#0098EA" transform="translate(349,368)"/>
<path d="M0 0 C1.11375 0.185625 1.11375 0.185625 2.25 0.375 C-0.63087546 2.77572955 -3.31404834 4.84791037 -6.75 6.375 C-3.42692308 0.46730769 -3.42692308 0.46730769 0 0 Z " fill="#0098EA" transform="translate(549.75,554.625)"/>
</svg>
